<?xml version="1.0" encoding="UTF-8"?>
<svg xmlns="http://www.w3.org/2000/svg" xmlns:xlink="http://www.w3.org/1999/xlink" width="375pt" height="374.999991pt" viewBox="0 0 375 374.999991" version="1.2">
<defs>
<clipPath id="clip1">
  <path d="M 61 68 L 366 68 L 366 307.953125 L 61 307.953125 Z M 61 68 "/>
</clipPath>
<clipPath id="clip2">
  <path d="M 9.160156 87 L 60 87 L 60 163 L 9.160156 163 Z M 9.160156 87 "/>
</clipPath>
<clipPath id="clip3">
  <path d="M 67 224 L 110 224 L 110 307.953125 L 67 307.953125 Z M 67 224 "/>
</clipPath>
</defs>
<g id="surface1">
<g clip-path="url(#clip1)" clip-rule="nonzero">
<path style=" stroke:none;fill-rule:nonzero;fill:rgb(41.958618%,32.159424%,30.979919%);fill-opacity:1;" d="M 129.242188 70.234375 C 124.160156 75.316406 124.160156 85.925781 129.332031 96.449219 C 132.988281 104.027344 138.605469 110.269531 153.234375 123.199219 C 165.183594 133.808594 169.734375 139.960938 172.050781 148.699219 C 176.957031 166.710938 167.59375 182.582031 146.1875 192.925781 C 135.308594 198.1875 126.746094 200.238281 114.972656 200.328125 C 97.582031 200.417969 89.195312 196.851562 76.355469 183.652344 C 71.449219 178.660156 66.277344 172.417969 64.671875 169.742188 C 62.441406 165.730469 61.90625 165.195312 61.90625 167.070312 C 61.90625 170.992188 65.382812 182.136719 68.773438 188.734375 C 74.390625 200.058594 78.761719 205.589844 93.925781 220.570312 C 103.824219 230.375 109.53125 236.707031 110.78125 239.472656 C 114.167969 246.425781 115.417969 254.542969 115.417969 271.125 L 115.417969 286.460938 L 112.652344 287.890625 C 105.609375 291.546875 99.453125 299.75 99.363281 305.457031 L 99.363281 307.953125 L 149.042969 307.953125 L 149.578125 291.722656 C 150.113281 273.535156 151.628906 265.507812 156.535156 255.433594 C 160.28125 247.855469 166.789062 241.613281 182.132812 231 C 193.28125 223.242188 199.253906 218.160156 199.253906 216.199219 C 199.253906 215.84375 198.09375 213.347656 196.667969 210.671875 C 193.367188 204.609375 190.605469 194.621094 189.800781 186.238281 C 188.550781 172.507812 190.246094 172.0625 206.035156 182.136719 C 207.636719 183.207031 208.351562 183.117188 211.382812 180.980469 C 216.289062 177.679688 225.207031 175.09375 231.898438 175.09375 C 236.714844 175.09375 237.605469 174.824219 237.605469 173.488281 C 237.695312 171.082031 240.015625 165.285156 241.621094 163.5 C 243.757812 161.183594 245.097656 161.984375 249.558594 168.316406 C 258.207031 180.445312 262.132812 191.410156 261.507812 201.308594 C 260.792969 212.277344 255.53125 219.855469 244.742188 225.382812 C 238.230469 228.683594 235.109375 233.140625 232.609375 242.859375 C 230.382812 251.597656 231.183594 267.023438 234.394531 275.671875 C 235.734375 279.328125 236.714844 282.359375 236.535156 282.449219 C 236.355469 282.539062 233.058594 283.164062 229.222656 283.699219 C 219.679688 285.125 212.542969 288.511719 207.816406 293.773438 C 204.429688 297.609375 201.929688 303.136719 201.929688 307.058594 C 201.929688 307.773438 213.613281 307.953125 242.777344 307.773438 L 283.539062 307.507812 L 288.976562 304.5625 C 300.125 298.5 309.9375 287.265625 315.554688 273.980469 L 318.054688 268.09375 L 323.40625 266.578125 C 349.714844 259.265625 367.375 234.925781 365.769531 208.085938 C 365.234375 198.8125 362.914062 190.699219 358.8125 183.476562 C 355.691406 177.859375 354.261719 176.609375 351.585938 177.054688 C 349.535156 177.324219 349.535156 177.589844 349 191.144531 C 348.289062 207.28125 346.59375 213.96875 341.152344 221.550781 C 337.316406 226.898438 333.75 229.929688 328.132812 232.785156 C 321.265625 236.261719 320.730469 236.261719 320.105469 232.425781 C 319.210938 226.808594 315.109375 214.148438 312.792969 209.421875 C 303.871094 191.769531 293.527344 181.246094 269.445312 165.464844 C 250.449219 152.980469 230.292969 142.816406 195.6875 128.28125 C 172.230469 118.472656 161.171875 112.765625 155.195312 107.238281 C 150.738281 103.226562 147.527344 98.855469 147.527344 97.074219 C 147.527344 96.714844 149.488281 97.875 151.894531 99.660156 C 163.757812 108.398438 177.761719 111.519531 186.324219 107.328125 C 196.222656 102.511719 201.304688 92.613281 197.472656 85.480469 C 195.507812 81.914062 191.941406 80.488281 181.953125 79.507812 C 170.625 78.4375 164.828125 77.011719 152.253906 72.015625 C 144.316406 68.894531 141.195312 68.09375 136.824219 68.09375 C 132.273438 68.09375 131.027344 68.449219 129.242188 70.234375 Z M 129.242188 70.234375 "/>
</g>
<g clip-path="url(#clip2)" clip-rule="nonzero">
<path style=" stroke:none;fill-rule:nonzero;fill:rgb(41.958618%,32.159424%,30.979919%);fill-opacity:1;" d="M 45.851562 89.226562 C 35.953125 96.003906 18.203125 113.210938 14.367188 119.808594 C 6.429688 133.453125 8.394531 153.160156 18.472656 159.757812 C 21.414062 161.71875 23.289062 162.164062 28.816406 162.433594 C 41.390625 162.878906 45.226562 158.597656 48.4375 140.230469 C 49.507812 134.433594 51.738281 126.230469 53.523438 121.503906 C 59.945312 104.832031 61.015625 99.210938 58.515625 93.683594 C 57.535156 91.457031 55.929688 89.226562 54.949219 88.691406 C 52.273438 87.265625 48.347656 87.53125 45.851562 89.226562 Z M 45.851562 89.226562 "/>
</g>
<path style=" stroke:none;fill-rule:nonzero;fill:rgb(41.958618%,32.159424%,30.979919%);fill-opacity:1;" d="M 116.933594 116.066406 C 114.882812 118.292969 114.972656 123.644531 117.023438 125.425781 C 119.699219 127.835938 124.78125 127.390625 126.921875 124.625 C 127.992188 123.289062 128.796875 121.59375 128.796875 120.703125 C 128.796875 119.808594 127.992188 118.117188 126.921875 116.777344 C 124.695312 113.925781 119.253906 113.480469 116.933594 116.066406 Z M 116.933594 116.066406 "/>
<path style=" stroke:none;fill-rule:nonzero;fill:rgb(41.958618%,32.159424%,30.979919%);fill-opacity:1;" d="M 84.738281 127.03125 C 80.011719 130.777344 83.042969 138.535156 89.195312 138.535156 C 95.171875 138.535156 98.117188 130.6875 93.476562 127.03125 C 92.140625 125.960938 90.179688 125.160156 89.109375 125.160156 C 88.039062 125.160156 86.074219 125.960938 84.738281 127.03125 Z M 84.738281 127.03125 "/>
<path style=" stroke:none;fill-rule:nonzero;fill:rgb(41.958618%,32.159424%,30.979919%);fill-opacity:1;" d="M 132.808594 151.019531 C 121.929688 153.246094 112.652344 159.222656 111.046875 164.75 C 108.460938 174.203125 116.042969 181.601562 128.351562 181.691406 C 136.914062 181.78125 141.90625 179.730469 147.078125 174.023438 C 152.964844 167.515625 154.035156 161.363281 150.378906 155.65625 C 147.703125 151.554688 139.945312 149.503906 132.808594 151.019531 Z M 132.808594 151.019531 "/>
<path style=" stroke:none;fill-rule:nonzero;fill:rgb(41.958618%,32.159424%,30.979919%);fill-opacity:1;" d="M 242.15625 188.824219 C 241.53125 189.539062 241.171875 191.234375 241.351562 192.660156 C 241.886719 197.207031 249.199219 196.316406 249.199219 191.679688 C 249.199219 187.933594 244.472656 186.0625 242.15625 188.824219 Z M 242.15625 188.824219 "/>
<path style=" stroke:none;fill-rule:nonzero;fill:rgb(41.958618%,32.159424%,30.979919%);fill-opacity:1;" d="M 216.378906 195.78125 C 215.753906 196.40625 215.308594 197.921875 215.308594 199.167969 C 215.308594 202.109375 216.824219 203.625 219.769531 203.625 C 222.710938 203.625 224.226562 202.109375 224.226562 199.167969 C 224.226562 197.921875 223.78125 196.40625 223.15625 195.78125 C 221.820312 194.441406 217.71875 194.441406 216.378906 195.78125 Z M 216.378906 195.78125 "/>
<path style=" stroke:none;fill-rule:nonzero;fill:rgb(41.958618%,32.159424%,30.979919%);fill-opacity:1;" d="M 234.929688 203.179688 C 234.039062 204.25 234.039062 204.785156 234.929688 205.855469 C 237.160156 208.53125 242.066406 206.925781 242.066406 203.449219 C 242.066406 202.199219 241.351562 201.84375 239.03125 201.84375 C 237.425781 201.84375 235.554688 202.46875 234.929688 203.179688 Z M 234.929688 203.179688 "/>
<g clip-path="url(#clip3)" clip-rule="nonzero">
<path style=" stroke:none;fill-rule:nonzero;fill:rgb(41.958618%,32.159424%,30.979919%);fill-opacity:1;" d="M 80.992188 229.484375 C 82.0625 238.402344 83.3125 260.960938 83.3125 272.464844 L 83.3125 283.875 L 79.832031 285.570312 C 72.785156 289.226562 67.257812 297.785156 67.257812 305.1875 L 67.257812 307.953125 L 93.746094 307.953125 L 94.371094 303.40625 C 94.726562 300.820312 95.707031 297.339844 96.6875 295.558594 C 98.472656 292.082031 103.554688 286.460938 107.125 284.144531 L 109.355469 282.628906 L 108.996094 270.144531 C 108.460938 252.222656 107.125 249.636719 90.714844 234.210938 L 80.367188 224.671875 Z M 80.992188 229.484375 "/>
</g>
</g>
</svg>
